<!DOCTYPE svg PUBLIC "-//W3C//DTD SVG 1.1//EN" "http://www.w3.org/Graphics/SVG/1.1/DTD/svg11.dtd">
<!-- Uploaded to: SVG Repo, www.svgrepo.com, Transformed by: SVG Repo Mixer Tools -->
<svg width="800px" height="800px" viewBox="-4.56 -4.56 33.12 33.12" fill="none" xmlns="http://www.w3.org/2000/svg" stroke="#ffffff" stroke-width="1.464">
<g id="SVGRepo_bgCarrier" stroke-width="0" transform="translate(0,0), scale(1)">
<path transform="translate(-4.56, -4.56), scale(2.07)" fill="#963232" d="M9.166.33a2.25 2.25 0 00-2.332 0l-5.25 3.182A2.25 2.25 0 00.5 5.436v5.128a2.25 2.25 0 001.084 1.924l5.25 3.182a2.25 2.25 0 002.332 0l5.25-3.182a2.25 2.25 0 001.084-1.924V5.436a2.25 2.25 0 00-1.084-1.924L9.166.33z" strokewidth="0"/>
</g>
<g id="SVGRepo_tracerCarrier" stroke-linecap="round" stroke-linejoin="round"/>
<g id="SVGRepo_iconCarrier"> <circle cx="12" cy="12" r="9.5" stroke="#ffffff" stroke-linecap="round"/> <path d="M8.20857 16.622C8.63044 16.2567 9.20751 15.9763 9.86133 15.7876C10.5191 15.5977 11.256 15.5 12 15.5C12.744 15.5 13.4809 15.5977 14.1387 15.7876C14.7925 15.9763 15.3696 16.2567 15.7914 16.622" stroke="#ffffff" stroke-linecap="round"/> <path d="M17 8L14 10" stroke="#ffffff" stroke-linecap="round"/> <path d="M7 8L10 10" stroke="#ffffff" stroke-linecap="round"/> <circle cx="8" cy="10" r="1" fill="#ffffff"/> <circle cx="16" cy="10" r="1" fill="#ffffff"/> </g>
</svg>